<svg id="Layer_1" data-name="Layer 1" xmlns="http://www.w3.org/2000/svg" viewBox="0 0 357.15 791.64"><defs><style>.cls-1{fill:#2db6b8;}.cls-2{fill:#dde6dd;}.cls-3{fill:#725752;}.cls-4{fill:#1c1f27;}.cls-5{fill:#fff;}.cls-6{fill:#164281;}.cls-7{fill:#ebedf2;}.cls-8{fill:#b57f41;}.cls-9{fill:#ec6051;}.cls-10{fill:#7bbc5e;}.cls-11{fill:#58bbde;}.cls-12{fill:#5c4b4a;}.cls-13{fill:#1c2127;}.cls-14{fill:#243264;}.cls-15{fill:#00adee;}.cls-16{font-size:21px;font-family:Verb;}.cls-16,.cls-19{font-weight:700;}.cls-17{letter-spacing:-1px;}.cls-18{font-size:23.98px;fill:#35373a;font-family:Titillium Web;}</style></defs><title>bean-fritzing</title><path class="cls-1" d="M223.07,0h-89A134.09,134.09,0,0,0,0,134.08V657.56A134.09,134.09,0,0,0,134.08,791.64h89A134.09,134.09,0,0,0,357.15,657.56V134.08A134.09,134.09,0,0,0,223.07,0ZM20.23,490.24a10.08,10.08,0,1,1,10.15-10.08A10.11,10.11,0,0,1,20.23,490.24Zm10.15,52.53a10.15,10.15,0,1,1-10.15-10.08A10.11,10.11,0,0,1,30.38,542.77ZM19.58,425.91A10.08,10.08,0,1,1,9.43,436,10.11,10.11,0,0,1,19.58,425.91Zm0,150.17A10.08,10.08,0,1,1,9.43,586.16,10.11,10.11,0,0,1,19.58,576.08ZM21.37,685.5a10.08,10.08,0,1,1,10.15-10.08A10.11,10.11,0,0,1,21.37,685.5Zm0-45.67a10.08,10.08,0,1,1,10.15-10.08A10.11,10.11,0,0,1,21.37,639.83Zm91.77-87a10.08,10.08,0,1,1,10.15-10.08A10.11,10.11,0,0,1,113.14,552.85Zm9.51,33.31a10.15,10.15,0,1,1-10.15-10.08A10.11,10.11,0,0,1,122.65,586.16ZM67,470.08a10.08,10.08,0,1,1-10.15,10.08A10.11,10.11,0,0,1,67,470.08Zm10.72,72.69a10.15,10.15,0,1,1-10.15-10.08A10.11,10.11,0,0,1,77.69,542.77ZM67,576.08a10.08,10.08,0,1,1-10.15,10.08A10.11,10.11,0,0,1,67,576.08Zm0,155.67a10.08,10.08,0,1,1,10.15-10.08A10.11,10.11,0,0,1,67,731.75ZM68.4,685.5a10.08,10.08,0,1,1,10.15-10.08A10.11,10.11,0,0,1,68.4,685.5Zm0-45.67a10.08,10.08,0,1,1,10.15-10.08A10.11,10.11,0,0,1,68.4,639.83Zm44.74-169.75A10.08,10.08,0,1,1,103,480.16,10.11,10.11,0,0,1,113.14,470.08ZM112.5,774.2a10.08,10.08,0,1,1,10.15-10.08A10.11,10.11,0,0,1,112.5,774.2Zm0-42.46a10.08,10.08,0,1,1,10.15-10.08A10.11,10.11,0,0,1,112.5,731.75Zm1.79-46.24a10.08,10.08,0,1,1,10.15-10.08A10.11,10.11,0,0,1,114.29,685.5Zm0-45.67a10.08,10.08,0,1,1,10.15-10.08A10.11,10.11,0,0,1,114.29,639.83Zm86.55-107.14a10.08,10.08,0,1,1-10.15,10.08A10.11,10.11,0,0,1,200.84,532.69Zm-43.88,0a10.08,10.08,0,1,1-10.15,10.08A10.11,10.11,0,0,1,157,532.69Zm-0.86,43.38a10.08,10.08,0,1,1-10.15,10.08A10.11,10.11,0,0,1,156.1,576.08Zm0,135.51a10.08,10.08,0,1,1-10.15,10.08A10.11,10.11,0,0,1,156.1,711.59Zm1.72,62.61A10.08,10.08,0,1,1,168,764.13,10.11,10.11,0,0,1,157.81,774.2Zm0-88.7A10.08,10.08,0,1,1,168,675.43,10.11,10.11,0,0,1,157.81,685.5Zm0-45.67A10.08,10.08,0,1,1,168,629.75,10.11,10.11,0,0,1,157.81,639.83Zm42.38-63.75A10.08,10.08,0,1,1,190,586.16,10.11,10.11,0,0,1,200.2,576.08Zm1.5,198.13a10.08,10.08,0,1,1,10.15-10.08A10.11,10.11,0,0,1,201.7,774.2Zm0-42.46a10.08,10.08,0,1,1,10.15-10.08A10.11,10.11,0,0,1,201.7,731.75Zm0-46.24a10.08,10.08,0,1,1,10.15-10.08A10.11,10.11,0,0,1,201.7,685.5Zm0-45.67a10.08,10.08,0,1,1,10.15-10.08A10.11,10.11,0,0,1,201.7,639.83ZM335.57,470.08a10.08,10.08,0,1,1-10.15,10.08A10.11,10.11,0,0,1,335.57,470.08Zm11,72.69a10.15,10.15,0,1,1-10.15-10.08A10.11,10.11,0,0,1,346.58,542.77Zm-54.32-10.08a10.08,10.08,0,1,1-10.15,10.08A10.11,10.11,0,0,1,292.26,532.69Zm-46.17,0a10.08,10.08,0,1,1-10.15,10.08A10.11,10.11,0,0,1,246.08,532.69Zm-0.57,43.38a10.08,10.08,0,1,1-10.15,10.08A10.11,10.11,0,0,1,245.51,576.08Zm0.57,198.13a10.08,10.08,0,1,1,10.15-10.08A10.11,10.11,0,0,1,246.08,774.2Zm1.22-42.46a10.08,10.08,0,1,1,10.15-10.08A10.11,10.11,0,0,1,247.3,731.75Zm0-46.24a10.08,10.08,0,1,1,10.15-10.08A10.11,10.11,0,0,1,247.3,685.5Zm0-45.67a10.08,10.08,0,1,1,10.15-10.08A10.11,10.11,0,0,1,247.3,639.83Zm44.39-63.75a10.08,10.08,0,1,1-10.15,10.08A10.11,10.11,0,0,1,291.68,576.08Zm1.79,155.67a10.08,10.08,0,1,1,10.15-10.08A10.11,10.11,0,0,1,293.47,731.75Zm0-46.24a10.08,10.08,0,1,1,10.15-10.08A10.11,10.11,0,0,1,293.47,685.5Zm0-45.67a10.08,10.08,0,1,1,10.15-10.08A10.11,10.11,0,0,1,293.47,639.83Zm26.09-453.07a5.43,5.43,0,1,1,5.5-5.43A5.47,5.47,0,0,1,319.56,186.76Zm0-45.67a5.43,5.43,0,1,1,5.5-5.43A5.47,5.47,0,0,1,319.56,141.09Zm0-44.24a5.43,5.43,0,1,1,5.5-5.43A5.47,5.47,0,0,1,319.56,96.85Zm16,479.23a10.08,10.08,0,1,1-10.15,10.08A10.11,10.11,0,0,1,335.57,576.08Zm1.72,109.43a10.08,10.08,0,1,1,10.15-10.08A10.11,10.11,0,0,1,337.28,685.5Zm0-45.67a10.08,10.08,0,1,1,10.15-10.08A10.11,10.11,0,0,1,337.28,639.83Z"/><path class="cls-1" d="M-0.71,121.58"/><rect class="cls-2" x="16.72" y="345.22" width="31.38" height="29.02"/><polygon class="cls-2" points="91.63 440.56 84.34 440.28 84.34 434.56 91.06 434.56 91.06 420.19 84.34 420.48 84.34 414.69 90.77 414.4 90.77 397.46 84.34 397.46 84.34 392.03 114.29 392.03 120.36 392.03 120.36 397.46 113.14 397.46 113.14 413.55 120.36 413.55 120.36 420.19 114.29 420.19 114.29 433.13 120.36 433.13 120.36 440.28 114.29 440.28 114.29 443.14 91.63 443.14 91.63 440.56"/><rect class="cls-3" x="94.27" y="392.03" width="17.15" height="51.1"/><rect class="cls-2" x="118.07" y="352.44" width="11.29" height="10.36"/><rect class="cls-2" x="118.07" y="371.09" width="11.29" height="10.36"/><rect class="cls-3" x="118.07" y="362.73" width="11.29" height="10.36"/><rect class="cls-4" x="147.09" y="333.5" width="70.54" height="71.47"/><rect class="cls-2" x="156.1" y="404.97" width="3.5" height="4.86"/><rect class="cls-2" x="166.25" y="404.97" width="3.5" height="4.86"/><rect class="cls-2" x="175.83" y="404.97" width="3.5" height="4.86"/><rect class="cls-2" x="184.26" y="404.97" width="3.5" height="4.86"/><rect class="cls-2" x="193.84" y="404.97" width="3.5" height="4.86"/><rect class="cls-2" x="204.56" y="404.97" width="3.5" height="4.86"/><rect class="cls-2" x="156.38" y="328.85" width="3.5" height="4.86"/><rect class="cls-2" x="166.82" y="328.85" width="3.5" height="4.86"/><rect class="cls-2" x="176.4" y="328.85" width="3.5" height="4.86"/><rect class="cls-2" x="184.55" y="328.85" width="3.5" height="4.86"/><rect class="cls-2" x="194.41" y="328.85" width="3.5" height="4.86"/><rect class="cls-2" x="205.13" y="328.85" width="3.5" height="4.86"/><rect class="cls-2" x="217.64" y="343.5" width="4.93" height="3.43"/><rect class="cls-2" x="217.64" y="353.87" width="4.93" height="3.43"/><rect class="cls-2" x="217.64" y="363.3" width="4.93" height="3.43"/><rect class="cls-2" x="217.64" y="371.38" width="4.93" height="3.43"/><rect class="cls-2" x="217.64" y="380.81" width="4.93" height="3.43"/><rect class="cls-2" x="217.64" y="391.75" width="4.93" height="3.43"/><rect class="cls-2" x="142.45" y="343.5" width="4.93" height="3.43"/><rect class="cls-2" x="142.45" y="353.87" width="4.93" height="3.43"/><rect class="cls-2" x="142.45" y="363.3" width="4.93" height="3.43"/><rect class="cls-2" x="142.45" y="371.38" width="4.93" height="3.43"/><rect class="cls-2" x="142.45" y="380.81" width="4.93" height="3.43"/><rect class="cls-2" x="142.45" y="391.75" width="4.93" height="3.43"/><rect class="cls-2" x="279.53" y="408.11" width="17.15" height="18.94"/><rect class="cls-2" x="279.53" y="433.99" width="17.15" height="18.94"/><rect class="cls-2" x="313.77" y="408.11" width="17.15" height="18.94"/><rect class="cls-2" x="313.77" y="433.99" width="17.15" height="18.94"/><rect class="cls-5" x="296.62" y="408.11" width="17.15" height="18.94"/><rect class="cls-5" x="296.62" y="433.99" width="17.15" height="18.94"/><rect class="cls-6" x="68.69" y="28.52" width="212.28" height="275.32"/><rect class="cls-7" x="84.34" y="105.78" width="180.9" height="180.61"/><path class="cls-8" d="M20.23,527a15.8,15.8,0,1,0,15.94,15.8A15.87,15.87,0,0,0,20.23,527Zm0,25.87a10.08,10.08,0,1,1,10.15-10.08A10.11,10.11,0,0,1,20.23,552.85Z"/><path class="cls-8" d="M67.54,527a15.8,15.8,0,1,0,15.94,15.8A15.87,15.87,0,0,0,67.54,527Zm0,25.87a10.08,10.08,0,1,1,10.15-10.08A10.11,10.11,0,0,1,67.54,552.85Z"/><path class="cls-8" d="M113.14,527a15.8,15.8,0,1,0,15.94,15.8A15.87,15.87,0,0,0,113.14,527Zm0,25.87a10.08,10.08,0,1,1,10.15-10.08A10.11,10.11,0,0,1,113.14,552.85Z"/><path class="cls-8" d="M157,558.57A15.8,15.8,0,1,0,141,542.77,15.87,15.87,0,0,0,157,558.57Zm0-25.87a10.08,10.08,0,1,1-10.15,10.08A10.11,10.11,0,0,1,157,532.69Z"/><path class="cls-8" d="M200.84,558.57a15.8,15.8,0,1,0-15.94-15.8A15.87,15.87,0,0,0,200.84,558.57Zm0-25.87a10.08,10.08,0,1,1-10.15,10.08A10.11,10.11,0,0,1,200.84,532.69Z"/><path class="cls-8" d="M246.08,558.57a15.8,15.8,0,1,0-15.94-15.8A15.87,15.87,0,0,0,246.08,558.57Zm0-25.87a10.08,10.08,0,1,1-10.15,10.08A10.11,10.11,0,0,1,246.08,532.69Z"/><path class="cls-8" d="M292.26,558.57a15.8,15.8,0,1,0-15.94-15.8A15.87,15.87,0,0,0,292.26,558.57Zm0-25.87a10.08,10.08,0,1,1-10.15,10.08A10.11,10.11,0,0,1,292.26,532.69Z"/><path class="cls-8" d="M336.43,527a15.8,15.8,0,1,0,15.94,15.8A15.87,15.87,0,0,0,336.43,527Zm0,25.87a10.08,10.08,0,1,1,10.15-10.08A10.11,10.11,0,0,1,336.43,552.85Z"/><path class="cls-8" d="M67,705.87a15.8,15.8,0,1,0,15.94,15.8A15.87,15.87,0,0,0,67,705.87Zm0,25.87a10.08,10.08,0,1,1,10.15-10.08A10.11,10.11,0,0,1,67,731.75Z"/><path class="cls-8" d="M112.5,705.87a15.8,15.8,0,1,0,15.94,15.8A15.87,15.87,0,0,0,112.5,705.87Zm0,25.87a10.08,10.08,0,1,1,10.15-10.08A10.11,10.11,0,0,1,112.5,731.75Z"/><path class="cls-8" d="M156.1,737.47a15.8,15.8,0,1,0-15.94-15.8A15.87,15.87,0,0,0,156.1,737.47Zm0-25.87a10.08,10.08,0,1,1-10.15,10.08A10.11,10.11,0,0,1,156.1,711.59Z"/><path class="cls-8" d="M201.7,705.87a15.8,15.8,0,1,0,15.94,15.8A15.87,15.87,0,0,0,201.7,705.87Zm0,25.87a10.08,10.08,0,1,1,10.15-10.08A10.11,10.11,0,0,1,201.7,731.75Z"/><path class="cls-8" d="M247.3,705.87a15.8,15.8,0,1,0,15.94,15.8A15.87,15.87,0,0,0,247.3,705.87Zm0,25.87a10.08,10.08,0,1,1,10.15-10.08A10.11,10.11,0,0,1,247.3,731.75Z"/><path class="cls-8" d="M293.47,705.87a15.8,15.8,0,1,0,15.94,15.8A15.87,15.87,0,0,0,293.47,705.87Zm0,25.87a10.08,10.08,0,1,1,10.15-10.08A10.11,10.11,0,0,1,293.47,731.75Z"/><path class="cls-8" d="M112.5,748.33a15.8,15.8,0,1,0,15.94,15.8A15.87,15.87,0,0,0,112.5,748.33Zm0,25.87a10.08,10.08,0,1,1,10.15-10.08A10.11,10.11,0,0,1,112.5,774.2Z"/><path class="cls-8" d="M157.81,748.33a15.8,15.8,0,1,0,15.94,15.8A15.87,15.87,0,0,0,157.81,748.33Zm0,25.87A10.08,10.08,0,1,1,168,764.13,10.11,10.11,0,0,1,157.81,774.2Z"/><path class="cls-8" d="M201.7,748.33a15.8,15.8,0,1,0,15.94,15.8A15.87,15.87,0,0,0,201.7,748.33Zm0,25.87a10.08,10.08,0,1,1,10.15-10.08A10.11,10.11,0,0,1,201.7,774.2Z"/><path class="cls-8" d="M246.08,748.33A15.8,15.8,0,1,0,262,764.13,15.87,15.87,0,0,0,246.08,748.33Zm0,25.87a10.08,10.08,0,1,1,10.15-10.08A10.11,10.11,0,0,1,246.08,774.2Z"/><path class="cls-8" d="M19.58,451.79A15.8,15.8,0,1,0,3.65,436,15.87,15.87,0,0,0,19.58,451.79Zm0-25.87A10.08,10.08,0,1,1,9.43,436,10.11,10.11,0,0,1,19.58,425.91Z"/><path class="cls-8" d="M20.23,464.36a15.8,15.8,0,1,0,15.94,15.8A15.87,15.87,0,0,0,20.23,464.36Zm0,25.87a10.08,10.08,0,1,1,10.15-10.08A10.11,10.11,0,0,1,20.23,490.24Z"/><path class="cls-8" d="M67,496A15.8,15.8,0,1,0,51,480.16,15.87,15.87,0,0,0,67,496Zm0-25.87a10.08,10.08,0,1,1-10.15,10.08A10.11,10.11,0,0,1,67,470.08Z"/><path class="cls-8" d="M113.14,496a15.8,15.8,0,1,0-15.94-15.8A15.87,15.87,0,0,0,113.14,496Zm0-25.87A10.08,10.08,0,1,1,103,480.16,10.11,10.11,0,0,1,113.14,470.08Z"/><path class="cls-8" d="M319.63,480.16a15.94,15.94,0,1,0,15.94-15.8A15.87,15.87,0,0,0,319.63,480.16Zm15.94-10.08a10.08,10.08,0,1,1-10.15,10.08A10.11,10.11,0,0,1,335.57,470.08Z"/><path class="cls-8" d="M19.58,602a15.8,15.8,0,1,0-15.94-15.8A15.87,15.87,0,0,0,19.58,602Zm0-25.87A10.08,10.08,0,1,1,9.43,586.16,10.11,10.11,0,0,1,19.58,576.08Z"/><path class="cls-8" d="M67,602A15.8,15.8,0,1,0,51,586.16,15.87,15.87,0,0,0,67,602Zm0-25.87a10.08,10.08,0,1,1-10.15,10.08A10.11,10.11,0,0,1,67,576.08Z"/><path class="cls-8" d="M112.5,570.36a15.8,15.8,0,1,0,15.94,15.8A15.87,15.87,0,0,0,112.5,570.36Zm0,25.87a10.08,10.08,0,1,1,10.15-10.08A10.11,10.11,0,0,1,112.5,596.23Z"/><path class="cls-8" d="M156.1,602a15.8,15.8,0,1,0-15.94-15.8A15.87,15.87,0,0,0,156.1,602Zm0-25.87a10.08,10.08,0,1,1-10.15,10.08A10.11,10.11,0,0,1,156.1,576.08Z"/><path class="cls-8" d="M200.2,602a15.8,15.8,0,1,0-15.94-15.8A15.87,15.87,0,0,0,200.2,602Zm0-25.87A10.08,10.08,0,1,1,190,586.16,10.11,10.11,0,0,1,200.2,576.08Z"/><path class="cls-8" d="M245.51,602a15.8,15.8,0,1,0-15.94-15.8A15.87,15.87,0,0,0,245.51,602Zm0-25.87a10.08,10.08,0,1,1-10.15,10.08A10.11,10.11,0,0,1,245.51,576.08Z"/><path class="cls-8" d="M291.68,602a15.8,15.8,0,1,0-15.94-15.8A15.87,15.87,0,0,0,291.68,602Zm0-25.87a10.08,10.08,0,1,1-10.15,10.08A10.11,10.11,0,0,1,291.68,576.08Z"/><path class="cls-8" d="M335.57,602a15.8,15.8,0,1,0-15.94-15.8A15.87,15.87,0,0,0,335.57,602Zm0-25.87a10.08,10.08,0,1,1-10.15,10.08A10.11,10.11,0,0,1,335.57,576.08Z"/><path class="cls-8" d="M21.37,614a15.8,15.8,0,1,0,15.94,15.8A15.87,15.87,0,0,0,21.37,614Zm0,25.87a10.08,10.08,0,1,1,10.15-10.08A10.11,10.11,0,0,1,21.37,639.83Z"/><path class="cls-8" d="M68.4,614a15.8,15.8,0,1,0,15.94,15.8A15.87,15.87,0,0,0,68.4,614Zm0,25.87a10.08,10.08,0,1,1,10.15-10.08A10.11,10.11,0,0,1,68.4,639.83Z"/><path class="cls-8" d="M114.29,614a15.8,15.8,0,1,0,15.94,15.8A15.87,15.87,0,0,0,114.29,614Zm0,25.87a10.08,10.08,0,1,1,10.15-10.08A10.11,10.11,0,0,1,114.29,639.83Z"/><path class="cls-8" d="M157.81,614a15.8,15.8,0,1,0,15.94,15.8A15.87,15.87,0,0,0,157.81,614Zm0,25.87A10.08,10.08,0,1,1,168,629.75,10.11,10.11,0,0,1,157.81,639.83Z"/><path class="cls-8" d="M201.7,614a15.8,15.8,0,1,0,15.94,15.8A15.87,15.87,0,0,0,201.7,614Zm0,25.87a10.08,10.08,0,1,1,10.15-10.08A10.11,10.11,0,0,1,201.7,639.83Z"/><path class="cls-8" d="M247.3,614a15.8,15.8,0,1,0,15.94,15.8A15.87,15.87,0,0,0,247.3,614Zm0,25.87a10.08,10.08,0,1,1,10.15-10.08A10.11,10.11,0,0,1,247.3,639.83Z"/><path class="cls-8" d="M293.47,614a15.8,15.8,0,1,0,15.94,15.8A15.87,15.87,0,0,0,293.47,614Zm0,25.87a10.08,10.08,0,1,1,10.15-10.08A10.11,10.11,0,0,1,293.47,639.83Z"/><path class="cls-8" d="M337.28,614a15.8,15.8,0,1,0,15.94,15.8A15.87,15.87,0,0,0,337.28,614Zm0,25.87a10.08,10.08,0,1,1,10.15-10.08A10.11,10.11,0,0,1,337.28,639.83Z"/><path class="cls-8" d="M21.37,659.63a15.8,15.8,0,1,0,15.94,15.8A15.87,15.87,0,0,0,21.37,659.63Zm0,25.87a10.08,10.08,0,1,1,10.15-10.08A10.11,10.11,0,0,1,21.37,685.5Z"/><path class="cls-8" d="M68.4,659.63a15.8,15.8,0,1,0,15.94,15.8A15.87,15.87,0,0,0,68.4,659.63Zm0,25.87a10.08,10.08,0,1,1,10.15-10.08A10.11,10.11,0,0,1,68.4,685.5Z"/><path class="cls-8" d="M114.29,659.63a15.8,15.8,0,1,0,15.94,15.8A15.87,15.87,0,0,0,114.29,659.63Zm0,25.87a10.08,10.08,0,1,1,10.15-10.08A10.11,10.11,0,0,1,114.29,685.5Z"/><path class="cls-8" d="M157.81,659.63a15.8,15.8,0,1,0,15.94,15.8A15.87,15.87,0,0,0,157.81,659.63Zm0,25.87A10.08,10.08,0,1,1,168,675.43,10.11,10.11,0,0,1,157.81,685.5Z"/><path class="cls-8" d="M201.7,659.63a15.8,15.8,0,1,0,15.94,15.8A15.87,15.87,0,0,0,201.7,659.63Zm0,25.87a10.08,10.08,0,1,1,10.15-10.08A10.11,10.11,0,0,1,201.7,685.5Z"/><path class="cls-8" d="M247.3,659.63a15.8,15.8,0,1,0,15.94,15.8A15.87,15.87,0,0,0,247.3,659.63Zm0,25.87a10.08,10.08,0,1,1,10.15-10.08A10.11,10.11,0,0,1,247.3,685.5Z"/><path class="cls-8" d="M293.47,659.63a15.8,15.8,0,1,0,15.94,15.8A15.87,15.87,0,0,0,293.47,659.63Zm0,25.87a10.08,10.08,0,1,1,10.15-10.08A10.11,10.11,0,0,1,293.47,685.5Z"/><path class="cls-8" d="M337.28,659.63a15.8,15.8,0,1,0,15.94,15.8A15.87,15.87,0,0,0,337.28,659.63Zm0,25.87a10.08,10.08,0,1,1,10.15-10.08A10.11,10.11,0,0,1,337.28,685.5Z"/><path class="cls-8" d="M319.56,106.35a14.94,14.94,0,1,0-15.08-14.94A15,15,0,0,0,319.56,106.35Zm0-20.37a5.43,5.43,0,1,1-5.5,5.43A5.47,5.47,0,0,1,319.56,86Z"/><path class="cls-8" d="M319.56,150.6a14.94,14.94,0,1,0-15.08-14.94A15,15,0,0,0,319.56,150.6Zm0-20.37a5.43,5.43,0,1,1-5.5,5.43A5.47,5.47,0,0,1,319.56,130.23Z"/><path class="cls-8" d="M334.64,181.33a15.08,15.08,0,1,0-15.08,14.94A15,15,0,0,0,334.64,181.33Zm-15.08,5.43a5.43,5.43,0,1,1,5.5-5.43A5.47,5.47,0,0,1,319.56,186.76Z"/><rect class="cls-2" x="17.87" y="301.33" width="10.15" height="29.59"/><rect class="cls-2" x="33.81" y="301.33" width="10.15" height="29.59"/><rect class="cls-2" x="48.96" y="301.33" width="10.15" height="29.59"/><rect class="cls-9" x="17.87" y="310.48" width="10.15" height="8.93"/><rect class="cls-10" x="33.81" y="310.48" width="10.15" height="8.93"/><rect class="cls-11" x="48.96" y="310.48" width="10.15" height="8.93"/><rect class="cls-2" x="28.02" y="163.17" width="26.16" height="61.47"/><rect class="cls-2" x="28.02" y="85.98" width="15.94" height="45.39"/><rect class="cls-12" x="28.02" y="100.92" width="15.94" height="15.8"/><rect class="cls-2" x="53.89" y="93.42" width="10.72" height="30.73"/><rect class="cls-12" x="53.89" y="103.49" width="10.72" height="10.65"/><rect class="cls-2" x="310.55" y="352.15" width="10.72" height="30.73"/><rect class="cls-12" x="310.55" y="362.16" width="10.72" height="10.65"/><rect class="cls-2" x="240.01" y="349.29" width="9.01" height="25.59"/><rect class="cls-12" x="240.01" y="357.58" width="9.01" height="8.93"/><rect class="cls-2" x="236.22" y="328.56" width="25.87" height="8.93"/><rect class="cls-12" x="244.65" y="328.56" width="9.01" height="8.93"/><rect class="cls-2" x="236.22" y="313.34" width="25.87" height="8.93"/><rect class="cls-12" x="244.65" y="313.34" width="9.01" height="8.93"/><rect class="cls-2" x="300.4" y="315.06" width="25.87" height="8.93"/><rect class="cls-12" x="308.84" y="315.06" width="9.01" height="8.93"/><rect class="cls-2" x="290.25" y="251.94" width="25.87" height="8.93"/><rect class="cls-12" x="298.69" y="251.94" width="9.01" height="8.93"/><rect class="cls-2" x="254.8" y="349.29" width="9.01" height="25.59"/><rect class="cls-12" x="254.8" y="357.58" width="9.01" height="8.93"/><rect class="cls-2" x="254.8" y="380.53" width="9.01" height="25.59"/><rect class="cls-12" x="254.8" y="388.89" width="9.01" height="8.93"/><rect class="cls-2" x="240.01" y="380.53" width="9.01" height="25.59"/><rect class="cls-12" x="240.01" y="388.89" width="9.01" height="8.93"/><rect class="cls-13" x="300.4" y="271.74" width="36.88" height="35.88"/><rect class="cls-13" x="272.82" y="364.73" width="30.52" height="12.94"/><rect class="cls-2" x="283.54" y="354.72" width="6.65" height="10.08"/><rect class="cls-2" x="276.6" y="377.95" width="6.65" height="10.08"/><rect class="cls-2" x="293.76" y="377.95" width="6.65" height="10.08"/><rect class="cls-2" x="195.27" y="34.88" width="45.6" height="10.36"/><rect class="cls-2" x="203.99" y="43.46" width="22.66" height="15.22"/><rect class="cls-2" x="229.29" y="48.39" width="31.66" height="10.36"/><rect class="cls-2" x="243.8" y="34.88" width="17.44" height="16.08"/><rect class="cls-14" x="201.7" y="68.76" width="59.25" height="28.16"/><path class="cls-15" d="M227.3,163.21c-4-4.57-10.34-6.27-18.75-5.07a13.8,13.8,0,0,0-4.33,1.51,10.28,10.28,0,0,1-2.62,1,18.53,18.53,0,0,1-3.21.3c-4,0-6.58-1.56-9.29-3.2a24.67,24.67,0,0,0-5.53-2.75,15.84,15.84,0,0,0-4.77-.79c-4.31,0-7.31,2.2-10.2,4.33a27.17,27.17,0,0,1-5.52,3.41c-2.38,1-5.4,1-8.33,1.09-3.25.06-6.62,0.12-9.33,1.43a14.14,14.14,0,0,0-4.73,4.4c-1.38,1.76-2.68,3.41-4.59,3.75-10.4,1.88-18.61,3.36-19.31,15-1.53,39.26,11.64,54.34,11.78,54.49,7.23,7.73,28,11.24,31.41,11.6,1,4.27,3.95,7,9.09,8.5,2.71,0.81,5.36,1.69,8.17,2.62,3.69,1.23,7.5,2.5,11.42,3.57,2.91,0.8,5.93,1.32,8.86,1.82,1.89,0.32,3.84.66,5.72,1.07a12.36,12.36,0,0,0,2.66.3,9.33,9.33,0,0,0,1.41-.1l0.19,0h0l0.47-.08,0.25-.06-0.14-.48,0.27,0.46c5.37-1.36,9.95-7.14,13.62-17.19a91.19,91.19,0,0,0,3.9-14.58c0-.15,2.49-14.8,5.67-38C233.32,187.32,234.6,171.47,227.3,163.21Zm-5,33.79c-0.55,2.84-1.07,6.6-1.66,11-1.22,8.89-2.75,20-5.25,27.53-0.36,1.07-4.23,2.22-9.86,2.22-4.16,0-9.53-.64-12-1.78-1.9-19.35-1.63-29-.47-42.08,0.14-1.63.29-3.2,0.41-4.67l0-.47-0.47-.07h-0.13a1.11,1.11,0,0,0-.84.44c-2.68,3.07-2.37,40.35-2.33,40.6,0,4.95-1.09,5.32-1.09,5.32a25.62,25.62,0,0,1-11.27,2.53c-2.93,0-5.32-.55-6.76-1.54-3.92-13.75-4-33.07-4-45.88v-1.4l-0.45-.05H166a0.77,0.77,0,0,0-.86.44c-1,3.33,1.06,40.93,1.06,40.93,0,4.82-1.62,5.39-1.62,5.39-2.91,1.48-8.28,2.39-11.48,2.39a8.61,8.61,0,0,1-4.82-1.14c-4-14.08-4.4-23.76-4.63-37.43l0-.29-0.24-.16a0.91,0.91,0,0,0-.53-0.18,0.7,0.7,0,0,0-.8.48c-0.6,3.19.08,22.23,2.58,34.58a7,7,0,0,1-3.35,2.29,14.56,14.56,0,0,1-5.22,1.1h0c-12,0-13.67-21-14.91-36.4-0.26-3.3-.52-6.41-0.84-9a10,10,0,0,1,1.92-7.92c2.7-3.33,8-5.25,16.08-5.88h0c0,2.92.37,3.46,1,3.46s0.81-.56,1.12-1.54c0.89-2.77,3.1-6.76,6.36-8.87,3.43-2.22,7-3.13,12.43-3.13,1.13,0,2.37,0,3.83.12l0.3,0c0.48,0.09.49,0.31,0.49,0.45-0.06,3.36.19,3.62,0.38,3.81l0.21,0.18h0.21c0.5,0,.71-0.55.91-1.16,0.71-2.26,3.91-5.66,5.69-7.31,0.47-.43.91-0.84,1.35-1.29a8.94,8.94,0,0,1,6.49-3c2.91,0,6,1.39,9.21,2.86s6.77,3.08,10.57,3.45c0.2,0,.39.1,0.39,0.56a19.9,19.9,0,0,1-.31,2.28c-0.2,1.18-.31,1.76,0,2.13a0.63,0.63,0,0,0,.49.23c0.47,0,1-.27,3.82-4a11.9,11.9,0,0,1,9.74-4.93,17,17,0,0,1,7.76,2c4.3,2.13,6.29,7.36,5.89,15.61C226.72,180,226.81,182.47,222.28,197Zm-56.39,51.2c1.7-4.53,8.71-5.48,14.29-5.48a74.34,74.34,0,0,1,11.66,1v0.06l0.5,0c1,0.17,1.68.31,1.95,0.37h0a12.41,12.41,0,0,1,5,2.74c1.07,1,1.31,1,1.55,1l0.36,0,0.14-.28c0.14-.3.27-0.56-2.17-3.7,4.14,0.07,9.33-1.07,13.48-2a39.94,39.94,0,0,1,6.47-1.13,1.62,1.62,0,0,1,.72.1c1.32,2.5-4.32,14.19-8.42,21.42-1.48,2.4-3.64,3.33-6.78,2.86h-0.12c-4.61-.67-8.59-1.24-13.21-2.22-3.33-.71-20.43-6.65-21.33-7.11C169.72,255.79,163.9,253.49,165.89,248.19Z"/><path class="cls-5" d="M219.11,241a39.94,39.94,0,0,0-6.47,1.13c-4.15.91-9.34,2.05-13.48,2,2.44,3.14,2.32,3.4,2.17,3.7l-0.14.28-0.36,0c-0.24,0-.49-0.07-1.55-1a12.41,12.41,0,0,0-5-2.74h0c-0.27-.06-1-0.2-1.95-0.37l-0.5,0V243.9a74.34,74.34,0,0,0-11.66-1c-5.58,0-12.59,1-14.29,5.48-2,5.3,3.83,7.6,4.08,7.69,0.9,0.46,18,6.4,21.33,7.11,4.61,1,8.6,1.55,13.21,2.22h0.12c3.14,0.47,5.3-.45,6.78-2.86,4.1-7.23,9.75-18.92,8.42-21.42A1.62,1.62,0,0,0,219.11,241Z"/><path class="cls-5" d="M220.82,164.41a17,17,0,0,0-7.76-2,11.9,11.9,0,0,0-9.74,4.93c-2.86,3.74-3.35,4-3.82,4a0.63,0.63,0,0,1-.49-0.23c-0.3-.36-0.2-0.95,0-2.13a19.91,19.91,0,0,0,.31-2.28c0-.46-0.19-0.53-0.39-0.56-3.8-.38-7.24-1.94-10.57-3.45s-6.3-2.86-9.21-2.86a8.94,8.94,0,0,0-6.49,3c-0.44.44-.88,0.86-1.35,1.29-1.78,1.65-5,5-5.69,7.31-0.19.61-.41,1.16-0.91,1.16h-0.21l-0.21-.18c-0.19-.19-0.44-0.45-0.38-3.81,0-.13,0-0.36-0.49-0.45l-0.3,0c-1.46-.08-2.7-0.12-3.83-0.12-5.4,0-9,.91-12.43,3.13-3.26,2.11-5.46,6.09-6.36,8.87-0.32,1-.6,1.54-1.12,1.54s-0.93-.54-1-3.46h0c-8.11.63-13.38,2.56-16.08,5.88a10,10,0,0,0-1.92,7.92c0.33,2.55.58,5.66,0.84,9,1.24,15.36,2.94,36.4,14.91,36.4a14.56,14.56,0,0,0,5.22-1.1,7,7,0,0,0,3.35-2.29c-2.5-12.35-3.18-31.38-2.58-34.58a0.7,0.7,0,0,1,.8-0.48,0.91,0.91,0,0,1,.53.18l0.24,0.16,0,0.29c0.24,13.67.68,23.34,4.63,37.43a8.61,8.61,0,0,0,4.82,1.14c3.2,0,8.57-.92,11.48-2.39,0,0,1.62-.57,1.62-5.39,0,0-2.05-37.61-1.06-40.93a0.77,0.77,0,0,1,.86-0.44h0.12l0.45,0.05v1.4c-0.07,12.81,0,32.13,4,45.88,1.44,1,3.83,1.54,6.76,1.54a25.62,25.62,0,0,0,11.27-2.53s1.09-.38,1.09-5.32c0-.25-0.36-37.53,2.33-40.6a1.11,1.11,0,0,1,.84-0.44H193l0.47,0.07,0,0.47c-0.12,1.47-.26,3-0.41,4.67-1.17,13.06-1.43,22.73.47,42.08,2.51,1.13,7.88,1.78,12,1.78,5.63,0,9.5-1.15,9.86-2.22,2.51-7.57,4-18.63,5.25-27.53,0.6-4.35,1.11-8.11,1.66-11,4.53-14.53,4.44-17,4.43-17.12C227.11,171.77,225.12,166.54,220.82,164.41Z"/><text class="cls-16" transform="translate(5.97 522.42)">A<tspan x="14.43" y="0">0</tspan></text><text class="cls-16" transform="translate(54.33 522.42)">A<tspan x="13.92" y="0">1</tspan></text><text class="cls-16" transform="translate(103.65 522.42)">0</text><text class="cls-16" transform="translate(151.76 522.42)">1</text><text class="cls-16" transform="translate(194.86 522.42)">2</text><text class="cls-16" transform="translate(240.06 522.42)">3</text><text class="cls-16" transform="translate(330.61 522.42)">5</text><text class="cls-16" transform="translate(78.99 467.42)">R</text><text class="cls-16" transform="translate(274.62 488.99)">V<tspan x="14.26" y="0">C</tspan><tspan x="27.66" y="0">C</tspan></text><text class="cls-16" transform="translate(8.33 417.28)">B<tspan class="cls-17" x="14.09" y="0">A</tspan><tspan x="27.62" y="0">T</tspan></text><text class="cls-16" transform="translate(39.81 472.96) rotate(-45)">GND</text><text class="cls-16" transform="translate(131.93 488.99)">GND</text><text class="cls-16" transform="translate(284.72 522.42)">4</text><text class="cls-18" transform="translate(92.15 137)"><tspan class="cls-19">Light</tspan><tspan x="52.3" y="0">Blue </tspan><tspan class="cls-15" x="102.72" y="0">| Bean</tspan></text></svg>